<?xml version="1.0" encoding="utf-8"?>
<!-- Svg Vector Icons : http://www.onlinewebfonts.com/icon -->
<!DOCTYPE svg PUBLIC "-//W3C//DTD SVG 1.1//EN" "http://www.w3.org/Graphics/SVG/1.1/DTD/svg11.dtd">
<svg version="1.1" xmlns="http://www.w3.org/2000/svg" xmlns:xlink="http://www.w3.org/1999/xlink" x="0px" y="0px" viewBox="0 0 1000 1000" enable-background="new 0 0 1000 1000" xml:space="preserve">
<g><g><path style="fill:#202020;" d="M710,80c-116.7,0-175,40.8-175,122.5V430h70v70h-70v297.5c0,81.7,58.3,122.5,175,122.5h35v70h-35c-99.2,0-169.2-26.6-210-79.8C459.2,963.4,389.2,990,290,990h-35v-70h35c116.7,0,175-40.8,175-122.5V500h-70v-70h70V202.5C465,120.8,406.7,80,290,80h-35V10h35c99.2,0,169.2,26.6,210,79.8C540.8,36.6,610.8,10,710,10h35v70H710z"/></g></g>
</svg>